<svg xmlns="http://www.w3.org/2000/svg" width="1920" height="1260" viewBox="0 0 1920 1260">
  <defs>
    <style>
      .cls-1 {
        fill-rule: evenodd;
      }
    </style>
  </defs>
  <path id="Color_Fill_1" data-name="Color Fill 1" class="cls-1" d="M0,0H1920V798H1794q-22.005,5-44,10c1.67-2,3.33-4,5-6,24.91-8.619,15.38-74.038,4-91-13.29-19.8-40.69-61.225-84-49-17.38,4.906-34.11,7.916-58,8-0.37-19.538,12.84-31.064,11-39-0.81-6.254-3.22-8.934-6-13-18.5.036-41.6-4.143-57-9-12.83-4.048-44.61-1.9-58-4H1406c-58.01,0-113.15-3-168-3l-113-3c-14.51,2.612-38.53,18.154-55,12-6.03-3.277-7.47-10.087-13-14l-10,3c-27.27,38.809-17.08,120.994-6,170,2.71,11.977,8.89,20.3,6,34-14.36,2.549-42.17,10.531-56,5-8.556-6.36-14.733-19.672-26-23-31.258-9.233-47.654,12.664-65,17H838c-11.507,2.418-25.019,9-41,5-14.04-3.519-24.081-12.768-40-16-31.617-6.42-53.491,8.252-73,14l-36-5-92,2-45-4c-10.275-2.74-28.886-12.039-48-7-21.825,5.753-52.376,12.6-82,8-60.69-9.421-131.688-7.373-189,3-34.554,6.254-61.305-7.625-85-12-38.469-7.1-72.576,9.915-107,10V0ZM1685,689c10.79-.268,19.68-0.1,26,4,9.2,5.965,33.78,46.064,28,66-9.42,32.472-52.46,48.273-98,41h-15l-12-9c-6.11-2.282-10.18.029-14-4-5.68-12.686,7.35-24.651,15-28v4q10.995-6,22-12c1.19-13.744-3.17-33.1-1-43C1650.66,708.323,1674.92,695.35,1685,689Z"/>
</svg>
